<svg width="182" height="240" viewBox="0 0 182 240" xmlns="http://www.w3.org/2000/svg"><title>Group</title><g fill="none" fill-rule="evenodd"><path d="M162.013 126.275l6.496-3.66c2.35-1.324 4.506-3.52 6.086-5.988 1.555-2.43 2.524-5.072 2.535-7.332l.163-47.49c.004-.864-.14-1.578-.403-2.136-.216-.454-.524-.795-.9-1.013-.045-.025-.09-.055-.132-.083L103.654 16.9c-.094-.04-.185-.092-.27-.147-.48-.227-1.095-.308-1.82-.226-.904.1-1.946.46-3.077 1.1L91.783 21.4v64.34l70.23 40.533zm8.69.26l-7.603 4.28h-.002c-.668.374-1.51.397-2.22-.016L88.55 89.054c-.75-.365-1.266-1.132-1.266-2.023V20.27h.007c0-.384.097-.772.3-1.127l.105-.18c.196-.372.498-.695.892-.916l7.703-4.338c1.66-.938 3.28-1.476 4.78-1.644 1.667-.19 3.192.08 4.483.765.053.025.104.054.154.083l.128.072-.003.005 72.218 41.68c.107.05.21.107.31.176l.05.034c1.084.67 1.95 1.637 2.537 2.878.537 1.135.832 2.5.824 4.063l-.158 47.494c-.016 3.127-1.255 6.616-3.24 9.72-1.96 3.065-4.675 5.813-7.668 7.5z" fill="#B3B4B4"/><path d="M98.193 62.448l.03-6.306 63.015 39.165 15.876-38.594-72.403-41.786-.125-.074c-1.775-.985-4.348-.79-7.196.814l-7.705 4.338-.15.262v30.09L80.82 82l7.604-4.284c5.35-3.01 9.742-9.88 9.77-15.27" fill="#FFF"/><path d="M106.67 67.502l.028-6.306.004-.503.423.267 54.022 21.227 15.578-25.374-72.108-41.62h-.002l-.123-.07c-.852-.472-1.907-.656-3.1-.523-1.165.13-2.46.57-3.822 1.34l-7.636 4.298-.076.13v66.21l7.186-4.048c2.632-1.483 5.034-3.92 6.78-6.65 1.744-2.725 2.832-5.74 2.845-8.378zm.585-5.803l-.027 5.804c-.013 2.747-1.134 5.865-2.93 8.676-1.795 2.805-4.266 5.31-6.98 6.84L89.715 87.3l-.418.236V20.294l.04-.14.15-.262.106-.105 7.704-4.337c1.43-.807 2.796-1.266 4.036-1.405 1.123-.128 2.145.01 3.017.385v-.038l.42.243.127.074 72.36 41.76.248.146-16.028 26.104-.148.24-.24-.147L107.256 61.7z" fill="#B3B4B4"/><path d="M23.903 127.153v48.142c0 1.336.208 2.452.578 3.316.31.723.723 1.243 1.2 1.526.054.03.105.06.153.096l72.5 41.754c.123.056.24.12.347.196.354.187.77.275 1.232.247.596-.04 1.27-.262 2.002-.688l50.5-29.313c1.945-1.134 3.768-3.295 5.12-5.862 1.365-2.59 2.217-5.545 2.217-8.252V130.15L89.233 89.446l-65.33 37.706zm-4.5 48.142V125.86h.006c0-.772.4-1.524 1.12-1.94l67.56-38.993c.674-.398 1.54-.432 2.265-.01l72.63 41.92c.75.363 1.266 1.132 1.266 2.022v49.457c0 3.44-1.053 7.135-2.743 10.342-1.726 3.272-4.154 6.084-6.843 7.652l-50.5 29.313c-1.352.787-2.696 1.203-3.97 1.282-1.45.093-2.79-.245-3.946-.953v-.002l-72.6-41.813c-.13-.06-.255-.133-.37-.214-1.253-.782-2.254-1.986-2.926-3.542-.608-1.413-.948-3.13-.948-5.09z" fill="#B3B4B4"/><path d="M21.95 125.912v49.43c0 3.366 1.134 5.756 2.92 6.797l.01.005h.002L93.77 221.93c2.19 1.266 3.652 1.9 6.05 2.16l26.31-21.595c4.653-2.658 8.465-9.883 8.465-16.055v-41.42l-39.768 22.046-72.878-41.152" fill="#F6F6F6"/><path d="M22.04 126.072v49.16c0 1.614.267 2.99.742 4.095.483 1.124 1.184 1.96 2.042 2.46l.01.005v.003l.01.004h.005v.003l73.002 42.16.687-3.354.11-.064 27.342-18.298c2.277-1.3 4.356-3.73 5.867-6.597 1.513-2.87 2.453-6.174 2.453-9.213v-40.934l-39.35 22.138-.138.08-.14-.08-72.644-41.568zm-.45 49.608l.023.277-.13-.724c0 1.69.278 3.144.783 4.314l-.197-1.082.205.82.386.735-.392-.472c.443 1.042 1.067 1.878 1.824 2.435.143.105.293.2.445.287l-.372-.446.05.013.322.433h.004l.015.01.662.38 72.69 41.98.335.195.08-.38.715-3.484 27.232-18.233c2.375-1.357 4.53-3.87 6.087-6.825 1.553-2.947 2.518-6.342 2.518-9.474v-41.905l-.418.244-39.63 22.3-72.926-41.73-.418-.245v50.13l.108.448z" fill="#B3B4B4"/><path d="M94.987 167.362v49.343c0 6.154 3.822 9.04 8.465 6.39l50.086-28.725c4.64-2.652 8.465-9.885 8.465-16.055V128.86L95.14 167.45l-.153-.088" fill="#FFF"/><path d="M95.193 167.742v49.007c0 1.947.39 3.555 1.07 4.743.435.762.986 1.352 1.63 1.747.637.396 1.37.6 2.172.6.972 0 2.046-.303 3.173-.947l50.162-28.767c2.274-1.3 4.353-3.73 5.865-6.6 1.513-2.87 2.455-6.174 2.455-9.212v-48.968l-66.516 38.39-.01.006zm-.564 49.006v-49.83l.422.243.01.01 66.798-38.554.42-.244v49.942c0 3.13-.966 6.524-2.52 9.47-1.56 2.96-3.715 5.474-6.084 6.828l-50.164 28.767c-1.214.694-2.383 1.023-3.448 1.023-.905 0-1.736-.237-2.465-.688-.728-.447-1.346-1.102-1.826-1.944-.725-1.272-1.145-2.973-1.145-5.022z" fill="#B3B4B4"/><path fill="#EBECEB" d="M89.1 86.783l72.903 42.076-67.005 38.496-72.748-41.99L89.1 86.783"/><path fill="#FFFFFE" d="M50.383 113.794l.008-4.317-28.205 16.198 72.78 41.966 66.904-38.536-8.77-5.567-59.756 34.377L40.482 131.6l-10.838-5.504 20.74-12.302"/><path d="M89.29 86.57l72.852 42.046c.135.077.18.25.102.384-.026.043-.063.078-.103.1l-66.985 38.647c-.098.056-.212.047-.297-.01L21.784 125.76c-.133-.076-.18-.248-.103-.38.027-.046.062-.08.104-.104L89.01 86.57c.09-.054.195-.05.28 0zm72.148 42.287L89.15 87.135l-66.666 38.382 72.53 41.664 66.424-38.323z" fill="#B3B4B4"/><path d="M179.372 109.304l.16-47.49c.024-5.39-4.34-7.325-9.675-4.32l-7.7 4.338-.154.26v66.765l7.603-4.282c5.347-3.012 9.74-9.883 9.766-15.27" fill="#FFF"/><path d="M179.093 109.302l.16-47.49c.006-1.323-.26-2.425-.745-3.285-.395-.7-.937-1.242-1.598-1.605-.66-.37-1.448-.56-2.32-.565-1.354-.006-2.923.44-4.598 1.38l-7.906 4.45-.076.135.002 66.207 7.458-4.2c2.63-1.482 5.033-3.92 6.778-6.65 1.744-2.726 2.832-5.74 2.845-8.378zm.72-47.49l-.16 47.492c-.013 2.748-1.135 5.867-2.932 8.676-1.793 2.806-4.264 5.31-6.977 6.84l-7.874 4.434-.417.235V62.242l.037-.14.153-.26.105-.104 7.973-4.49c1.758-.99 3.42-1.456 4.872-1.45.97.005 1.846.22 2.594.634.748.414 1.364 1.027 1.812 1.82.53.94.82 2.135.815 3.56z" fill="#B3B4B4"/><path fill="#FFFFFE" d="M89.62 87.082V20.318l72.383 41.776v66.765L89.62 87.08"/><path d="M157.988 126.927l-4.878-2.807 4.878 2.807zm0 0v-62.85l-65.55-37.962.28 17.432 21.795 26.208 37.25 53.59 6.225 3.582z" fill="#EBECEB"/><path d="M157.988 126.927l-4.878-2.807 4.878 2.807zm0 0v-26.31l-36.86-21.346 30.635 44.076 6.225 3.58z" fill="#E3E4E3"/><path d="M158.37 126.764l-.558-.323V64.077L92.702 26.36v62.52l-.56-.324v-62.68c0-.16.126-.283.28-.283.058 0 .112.018.158.048l65.652 38.03c.09.053.14.146.14.243v62.85" fill="#B3B4B4"/><path d="M89.19 86.996V20.232c0-.157.126-.282.28-.282.058 0 .113.018.158.05l72.243 41.852c.09.052.14.145.14.242h.002v66.765c0 .154-.128.28-.28.28-.06 0-.115-.017-.156-.05L89.33 87.24c-.09-.053-.14-.15-.14-.244zm.56-66.28v66.12l71.7 41.537V62.257l-71.7-41.54z" fill="#B3B4B4"/><path d="M141.94 71.07L74.04 31.527c-1.48-.86-2.836-.915-3.877-.31l-4.124 2.545.008.013c-1.51.563-2.5 2.354-2.5 5.008v34.544l51.572 45.808 32.753-.903V82.455c0-4.364-2.67-9.49-5.93-11.386" fill="#FFF"/><path d="M139.183 73.92l-68.06-39.54c-.428-.248-.805-.378-1.12-.404-.208-.017-.383.014-.513.09l-.05.028-3.835 2.362c-.083.064-.174.125-.27.178-.102.06-.207.106-.316.148h.002c-.224.083-.434.314-.613.672-.27.54-.425 1.293-.425 2.238v51.965l58.54 38.543 21.47-12.35V83.365c0-1.818-.57-3.82-1.488-5.58-.893-1.714-2.073-3.14-3.324-3.866zM73.375 30.496l68.06 39.54c2.016 1.17 3.81 3.257 5.068 5.675 1.235 2.365 2 5.108 2 7.655v35.776h-.004c0 .774-.405 1.524-1.123 1.94l-23.708 13.64c-.68.4-1.545.43-2.274.01L60.744 94.97c-.75-.365-1.268-1.132-1.268-2.022V39.693c0-1.658.326-3.094.9-4.242.636-1.273 1.58-2.204 2.745-2.73l3.96-2.437c.05-.037.1-.068.155-.1.932-.538 1.988-.78 3.12-.688.973.078 1.993.406 3.02 1z" fill="#B3B4B4"/><path d="M140.122 71.98L72.22 32.437c-1.48-.86-2.838-.917-3.88-.31l-4.123 2.544 1.703 3.13V92.54c0 .57.047 1.156.135 1.746l58.018 39.572 21.976-12.683v-37.81c0-4.365-2.668-9.49-5.928-11.386" fill="#F6F6F6"/><path d="M140.512 72.22L72.135 32.68c-.69-.4-1.354-.616-1.96-.665-.616-.048-1.178.074-1.66.355l-3.92 2.4 1.588 2.896.036.135v59.24c0 .28.012.56.03.838.02.243.048.49.08.733l56.54 35.818 23.47-13.415V83.365c0-2.138-.66-4.463-1.72-6.49-1.06-2.018-2.513-3.734-4.108-4.654zM72.42 32.196l68.375 39.54c1.69.976 3.22 2.774 4.325 4.882 1.102 2.102 1.787 4.52 1.787 6.748v37.97l-.143.08-23.754 13.58-.14.078-.14-.08-56.8-35.965-.12-.07-.02-.134c-.043-.3-.077-.607-.1-.908-.025-.298-.037-.593-.037-.878v-59.17l-1.68-3.062-.127-.23.228-.142 4.15-2.546.008-.003c.585-.336 1.258-.485 1.988-.43.69.057 1.43.297 2.2.74z" fill="#B3B4B4"/><path d="M135.558 74.75L67.655 35.21c-3.26-1.9-5.93.12-5.93 4.483v55.405l51.57 29.82 15.816 6.03 12.375-7.14V86.134c0-4.366-2.666-9.49-5.927-11.386" fill="#FFF"/><path d="M61.726 57.997v37.1l51.57 29.822 2.47.94V97.495c0-4.364-2.667-9.487-5.927-11.387l-48.114-28.11" fill="#F6F6F6"/><path d="M135.678 74.99L67.536 35.45c-.792-.458-1.54-.675-2.214-.675-.534 0-1.023.136-1.45.395-.43.263-.8.654-1.097 1.158-.485.832-.764 1.97-.764 3.367v57.02l64.656 35.428 14.82-8.495V86.135c0-2.136-.658-4.463-1.718-6.49-1.054-2.02-2.502-3.733-4.09-4.655zm-67.86-40.025l68.14 39.54c1.685.978 3.21 2.775 4.31 4.88 1.1 2.103 1.782 4.52 1.782 6.748v37.835l-.143.08-15.103 8.66-.138.08-.142-.08-64.938-35.59-.14-.082V39.693c0-1.495.307-2.73.843-3.646.342-.586.778-1.045 1.29-1.356.515-.313 1.103-.48 1.74-.48.772.003 1.616.244 2.498.755z" fill="#B3B4B4"/><path d="M69.467 42.547c1.612.936 2.917 3.312 2.917 5.306 0 1.994-1.305 2.85-2.917 1.917-1.61-.936-2.915-3.312-2.915-5.307 0-1.996 1.305-2.852 2.915-1.916" fill="#ED4C6F"/><path d="M77.608 47.328c1.612.935 2.92 3.31 2.92 5.305 0 1.995-1.308 2.854-2.92 1.916-1.61-.937-2.915-3.31-2.915-5.306s1.304-2.855 2.915-1.916" fill="#2EBCE3"/><path d="M61.586 51.05c-.133-.075-.178-.246-.1-.38.076-.134.25-.18.382-.102l79.76 46.35c.132.077.177.25.1.383-.08.134-.25.18-.383.102l-79.76-46.35" fill="#B3B4B4"/><path d="M142.14 97.268c-.134.077-.306.03-.382-.1-.078-.136-.032-.307.1-.384l4.195-2.42c.134-.078.306-.03.38.1.08.134.033.307-.098.383l-4.194 2.42" fill="#B3B4B4"/><path d="M85.76 52.376c1.613.934 2.92 3.312 2.92 5.306 0 1.995-1.307 2.852-2.92 1.915-1.61-.936-2.916-3.312-2.916-5.306 0-1.994 1.307-2.852 2.917-1.914" fill="#F4B728"/><path d="M101.077 92.766L52.617 64.45c-.424-.25-.8-.378-1.116-.404-.207-.018-.38.015-.51.09l-.047.027-3.776 2.33c-.087.072-.178.136-.275.194-.137.08-.278.145-.42.193-.2.1-.387.32-.55.645-.27.538-.42 1.293-.42 2.238v53.457l48.324 4.32 12.056-6.96v-18.367c0-1.818-.57-3.82-1.488-5.583-.89-1.71-2.07-3.136-3.317-3.864zm-46.21-32.2l48.458 28.32c2.013 1.17 3.8 3.256 5.057 5.67 1.232 2.37 1.997 5.112 1.997 7.657v19.66h-.006c-.003.773-.404 1.525-1.12 1.94l-14.288 8.246c-.676.4-1.54.43-2.27.01l-50.43-5.537C41.517 126.168 41 125.4 41 124.51V69.76c0-1.658.325-3.093.897-4.242.636-1.273 1.576-2.204 2.738-2.728l3.953-2.44c.048-.035.1-.067.15-.1.93-.536 1.985-.776 3.115-.688.97.08 1.987.408 3.013 1.003z" fill="#B3B4B4"/><path d="M102.49 90.993L53.743 62.51c-1.48-.863-2.834-.917-3.877-.313l-4.123 2.545 1.702 3.13v37.45l46.67 27.01 14.307-8.258v-21.69c0-4.367-2.667-9.493-5.93-11.39" fill="#F6F6F6"/><path d="M102.298 91.205L53.6 62.75c-.687-.398-1.344-.615-1.946-.665-.61-.048-1.168.076-1.65.354l-3.89 2.402 1.575 2.895.035.134v37.29l46.337 26.817 14.024-8.094V102.35c0-2.136-.654-4.462-1.71-6.49-1.05-2.016-2.493-3.733-4.078-4.655zm-48.416-28.94L102.58 90.72c1.678.976 3.198 2.775 4.296 4.882 1.092 2.102 1.773 4.52 1.773 6.748v21.854l-.142.08-14.306 8.26-.14.077-.14-.077-46.62-26.98-.14-.08v-.162l.002-37.38-1.667-3.062-.128-.235.226-.14 4.124-2.544.006-.006c.58-.336 1.246-.486 1.974-.427.682.054 1.42.294 2.182.74z" fill="#B3B4B4"/><path d="M98.026 93.82L49.178 65.28c-3.26-1.9-5.928.12-5.928 4.482v54.963L94.21 143.3l9.745-5.622v-32.472c0-4.364-2.67-9.488-5.93-11.387" fill="#FFF"/><path d="M97.816 94.02l-48.78-28.5c-.786-.457-1.532-.673-2.205-.673-.532 0-1.017.135-1.442.395-.43.26-.8.652-1.093 1.157-.484.832-.763 1.97-.763 3.363v60.26l50.61 9.274 9.46-5.46v-28.672c0-2.137-.653-4.462-1.71-6.49-1.05-2.018-2.494-3.73-4.076-4.654zM49.32 65.038l48.777 28.5c1.678.976 3.2 2.774 4.295 4.882 1.094 2.1 1.772 4.52 1.772 6.747v28.994l-.14.082-9.742 5.624-.14.08-.14-.08-50.893-9.44-.14-.082V69.762c0-1.493.307-2.73.84-3.645.343-.587.777-1.044 1.288-1.356.513-.312 1.1-.478 1.733-.478.77 0 1.612.243 2.49.755z" fill="#B3B4B4"/><path d="M50.717 72.192c1.612.935 2.916 3.312 2.916 5.307 0 1.993-1.304 2.85-2.916 1.913-1.61-.934-2.918-3.312-2.918-5.305 0-1.996 1.307-2.852 2.917-1.916" fill="#ED4C6F"/><path d="M58.858 76.972c1.61.936 2.916 3.312 2.916 5.306 0 1.996-1.305 2.854-2.916 1.917-1.61-.935-2.918-3.31-2.918-5.307 0-1.995 1.307-2.85 2.918-1.916" fill="#2EBCE3"/><path d="M43.11 81.12c-.134-.075-.18-.248-.1-.38.075-.134.248-.18.38-.1l60.476 35.218c.134.077.178.25.1.383-.076.136-.25.18-.382.103L43.11 81.12" fill="#B3B4B4"/><path d="M104.17 116.223c-.136.078-.308.032-.385-.102-.077-.134-.03-.305.103-.382l4.193-2.42c.135-.077.306-.033.384.1.076.135.032.305-.102.384l-4.193 2.42" fill="#B3B4B4"/><path d="M67.01 82.02c1.61.935 2.918 3.313 2.918 5.307 0 1.993-1.307 2.85-2.918 1.915-1.61-.935-2.917-3.312-2.917-5.306 0-1.995 1.306-2.85 2.917-1.917" fill="#F4B728"/><path d="M61.423 166.875l-9.306-5.406-3.06 2.167 2.137 4.648 3.273 10.043 2.642 3.28c3.773-2.253 4.227-2.757 4.313-6v-8.733" fill="#EBECEB"/><path d="M61 167.118l-8.862-5.15-2.553 1.81 1.975 4.293 3.244 10.004 2.402 2.983c1.643-.985 2.584-1.618 3.104-2.328.53-.723.652-1.596.69-3.122v-8.49zm-8.67-6.012l9.28 5.39c.14.07.235.213.235.38v8.732h-.003v.01c-.045 1.713-.193 2.708-.852 3.61-.637.87-1.723 1.58-3.647 2.73-.18.12-.425.083-.56-.09l-2.642-3.276-.014-.02-3.273-10.044c-.015-.023-.028-.047-.04-.07l-2.13-4.63c-.095-.182-.042-.412.13-.535l3.06-2.167c.13-.09.307-.105.456-.02z" fill="#B3B4B4"/><path d="M58.364 168.774l-9.306-5.137v9.864c0 7.864 9.306 11.506 9.306 5.338v-10.064" fill="#F6F6F6"/><path d="M57.942 169.022l-8.464-4.67v9.15c0 3.514 1.94 6.14 4.007 7.333.6.346 1.21.57 1.78.654.54.08 1.043.03 1.456-.156.733-.334 1.222-1.138 1.222-2.497v-9.815zm-8.683-5.754l9.282 5.124c.144.067.243.214.243.382v10.063c0 1.74-.688 2.796-1.718 3.264-.563.257-1.225.325-1.923.222-.673-.1-1.386-.358-2.08-.762-2.28-1.317-4.428-4.206-4.428-8.06v-9.865h.002c0-.07.018-.138.052-.203.11-.2.366-.275.57-.164z" fill="#B3B4B4"/><path fill="#C71E4E" d="M153.1 117.942h-51.568v12.555l7.905 14.635 11.95 2.448 31.713-18.303v-11.335"/><path fill="#0086B3" d="M90.677 118.267H39.11v12.554l31.3 17.793L86.4 132.07l4.277-2.47v-11.333"/><path fill="#D1822B" d="M121.917 136.14H70.35v12.58l24.514 13.874 22.778-12.626 4.275-2.468v-11.36"/><path d="M132.154 104.226l19.175 10.91c2.657 1.512 2.302 4.188-.79 5.947l-17.6 10.013c-3.09 1.76-7.794 1.96-10.45.45l-19.177-10.912c-2.66-1.512-2.304-4.187.788-5.947l17.6-10.014c3.09-1.758 7.795-1.96 10.454-.447" fill="#ED4C6F"/><path d="M69.73 104.55l19.177 10.91c2.657 1.512 2.302 4.19-.79 5.947l-17.6 10.013c-3.09 1.76-7.793 1.962-10.45.45L40.89 120.956c-2.657-1.51-2.303-4.187.787-5.945l17.6-10.015c3.092-1.758 7.795-1.96 10.453-.448" fill="#3EC9F0"/><path d="M100.96 122.636l19.175 10.91c2.657 1.513 2.303 4.19-.788 5.948l-17.6 10.013c-3.092 1.76-7.795 1.96-10.453.45l-19.176-10.91c-2.657-1.514-2.304-4.19.787-5.948l17.6-10.015c3.092-1.76 7.795-1.96 10.454-.45" fill="#F6BE25"/><path d="M153.1 128.12l.854.496c.135.077.18.25.102.384-.026.043-.062.078-.103.1l-58.904 34c-.1.057-.215.048-.298-.01l-65.106-36.993c-.134-.077-.18-.247-.103-.38.024-.044.06-.08.103-.104l9.464-5.392v.64l-8.766 4.995 64.565 36.68 58.34-33.678-.15-.087v-.65" fill="#B3B4B4"/><path d="M137.928 117.96v4.19l-5.92-3.403.98-3.675 4.94 2.888zm-1.16 4.86h-15.25l9.535-3.286 5.714 3.285zm-18.117-1.473v-8.945l4.674 2.687-4.673 6.257zm1.162-9.613h7.29l3.195 1.88-6.046.673-4.438-2.553zm12.086 2.76l-.914 3.664-5.354-3.078 6.268-.587zm-7.56 1.177l-4.973 6.663 10.35-3.568-5.377-3.094zM70.37 113.034c-.03-.33-.24-.73-.4-1.07-.938-1.993-3.653-4.318-7.227-1.973-.563.37-1.04.79-1.45 1.218-.402.417-.653.82-.996 1.22-1.836-.31-3.247-.627-5.25-.55-3.342.13-4.004 1.416-2.953 3.184.345.58 1.326 1.66 2.19 2.207-.528.322-1.11.586-1.666.938-4.418 2.8-2.076 4.723 3.976 4.627l1.924-.083c.073.55.642 1.613 1.063 2.14 2.35 2.942 5.74 1.993 8.03-.316.43-.434.674-.84 1.043-1.25 3.916.97 10.47.964 8.1-2.625-.377-.572-1.363-1.647-2.22-2.183.964-.66 2.038-.952 3.2-2.178 2.657-2.8-1.87-3.445-5.438-3.388-.2.003-.312.003-.462.013-.338.027-1.256.095-1.464.07zm-4.815 3.385c-3.387-.82-5.43 2.03-2.175 2.9 1.182.314 2.862.067 3.543-.808.54-.692.158-1.724-1.368-2.093zm10.778-.19c-.804.732-1.64 1.125-2.61 1.683-.917-.528-1.38-.87-2.443-1.444-.476-.257-.49-.177-.47-.5.02-.36-.01-.743-.047-1.086l-.125-1.09c1.188-.024 1.557-.14 3.064-.076 2.903.127 4.653.666 2.63 2.51zm-7.173.173c.433.2.338.257.31.507-.02.177-.026.368-.06.55-.087.47-.272 1.83-.437 2.222-.075.174-.503.233-.765.308-.308.09-.565.173-.86.25-.585.15-1.17.313-1.735.457l-1.74.415c-1.47-.547-2.768-1.108-4.133-1.74-.487-.226-.358-.244-.33-.523.075-.783.152-1.42.367-2.214.203-.75-.03-.61.928-.893.435-.13 4.01-1.137 4.348-1.068.613.123 3.45 1.42 4.107 1.728zm-.04-3.23c-.582.094-1.175.147-1.806.255-.598.102-1.172.194-1.776.305-.575.107-.38.083-1.002-.127-.324-.11-.682-.226-1.014-.326-.67-.205-1.388-.373-2.023-.57.614-.72.95-1.292 1.88-1.983.765-.564 1.856-1.15 2.838-.897 1.682.432 2.635 2.436 2.903 3.344zm4.393 5.804c1.253.832 3.162 2.884 2.167 3.67-1.093.865-5.02.31-6.576-.028.163-.392.402-.786.566-1.166.063-.147.396-1.114.427-1.148.07-.074 1.438-.528 1.704-.63.53-.203 1.244-.455 1.713-.7zm-2.762-1.758c.33.165 1.814 1.014 1.92 1.173-.365.192-1.916.805-2.29.887l.37-2.06zm-1.287-2.442c.028.253.056.533.042.787l-2.874-1.213c.296-.103 2.4-.403 2.685-.4l.148.826zm-.932 6.192c-.133.346-.464 1.105-.655 1.373-.76-.172-1.83-.477-2.567-.74l3.278-.853c.01.095-.014.115-.055.22zm-10.023-4.49c-.124.26-.18.746-.233 1.045-.06.333-.067.727-.148 1.025-.376-.143-1.698-.927-1.962-1.143.232-.173 2.046-.878 2.343-.926zm2.57-3.043c.815.233 1.65.434 2.455.715l-3.226.85c.066-.255.56-1.348.77-1.565zm-4.066 2.675c-.578.227-1.152.447-1.7.693-1.268-.84-3.106-2.893-2.114-3.713.41-.34 1.055-.37 1.56-.433 1.323-.168 3.768.196 5.058.484-.015.14-.477.968-.58 1.183-.796 1.642.256.81-2.223 1.785zm2.38 4.093l2.893 1.212c-.355.1-.94.176-1.326.236-.213.033-.454.076-.67.11-.265.037-.418.038-.663.093-.15-.17-.25-1.538-.234-1.65zm-1.193 1.23l.1.537c-.137.004-.22.024-.378.04-1.484.147-4.82.08-5.927-.61-.758-.474-.21-1.238.47-1.85.518-.467 1.895-1.397 2.636-1.665.354.144 1.233.74 1.63.964 1.14.65 1.367.537 1.347.963-.016.368.043.728.063 1.084.012.188.043.355.057.54zm6.193.743c1.17.39 1.908.554 3.008.883-.062.377-1.422 1.64-1.915 1.99-2.374 1.667-3.838.815-4.905-.726-.244-.354-.832-1.472-.762-1.726.602-.065 1.196-.16 1.828-.262 2.52-.405 1.702-.507 2.746-.158z" fill="#FFFFFE"/><path d="M133.566 162.683c.93-.232 1.808-.274 2.617-.14l1.432-2.634c.503-.928 1.328-1.403 1.83-1.058l1.833 1.256c.503.345.503 1.387 0 2.313l-1.432 2.636c.475.746.844 1.642 1.086 2.677l2.023-1.167c.71-.41 1.295-.01 1.295.888v3.27c0 .9-.584 1.974-1.295 2.384l-2.023 1.167c-.242 1.315-.61 2.637-1.086 3.933l1.432.98c.503.346.503 1.387 0 2.314l-1.832 3.37c-.503.927-1.328 1.402-1.83 1.056l-1.433-.98c-.81 1.066-1.687 2.04-2.617 2.88v2.555c0 .9-.582 1.972-1.295 2.384l-2.59 1.494c-.71.412-1.293.012-1.293-.887v-2.555c-.93.232-1.81.274-2.618.14l-1.433 2.634c-.504.927-1.328 1.402-1.83 1.057l-1.832-1.257c-.504-.346-.504-1.385 0-2.313l1.432-2.633c-.476-.747-.845-1.644-1.087-2.68l-2.02 1.168c-.714.412-1.298.01-1.298-.888v-3.27c0-.9.584-1.972 1.297-2.383l2.02-1.168c.242-1.314.61-2.637 1.087-3.933l-1.432-.98c-.504-.346-.504-1.387 0-2.314l1.83-3.37c.504-.927 1.328-1.403 1.832-1.058l1.432.983c.807-1.068 1.686-2.04 2.617-2.883v-2.554c0-.9.582-1.972 1.294-2.382l2.59-1.496c.714-.41 1.296-.01 1.296.89v2.553zm-2.59 8.047c2.634-1.52 4.77-.057 4.77 3.27 0 3.325-2.136 7.253-4.77 8.773-2.633 1.52-4.767.055-4.767-3.27s2.133-7.255 4.766-8.773z" fill="#C8C8C8"/><path d="M103.63 131.386c3.516 2.092 5.642 4.22 4.747 4.752-.896.532-4.473-.733-7.99-2.824-3.518-2.092-5.645-4.22-4.75-4.752.897-.532 4.474.73 7.992 2.824zm-7.944 12.298c-.896.533-4.473-.73-7.99-2.823-3.52-2.09-5.645-4.218-4.75-4.75l2.71-1.613c.69 1.23 2.576 2.888 5.23 4.467 2.653 1.576 5.444 2.698 7.51 3.108l-2.71 1.612zm4.302-2.558c-.896.532-4.473-.732-7.99-2.824-3.518-2.092-5.645-4.22-4.75-4.752l2.71-1.612c.69 1.23 2.578 2.89 5.23 4.467 2.653 1.576 5.445 2.7 7.51 3.11l-2.71 1.61zm4.24-2.522c-.895.533-4.472-.732-7.99-2.823-3.52-2.09-5.644-4.218-4.75-4.75l2.71-1.613c.692 1.23 2.577 2.89 5.23 4.465 2.654 1.58 5.445 2.7 7.51 3.11l-2.71 1.612z" fill="#FFFFFE"/></g></svg>