<svg id="hero" xmlns="http://www.w3.org/2000/svg" viewBox="0 0 1298.63 474.86">
  <defs>
    <style>
      .cls-2,.cls-8{fill:#fff}.cls-13,.cls-18,.cls-19,.cls-2,.cls-20,.cls-21,.cls-22,.cls-25,.cls-26,.cls-4,.cls-8,.cls-9{stroke:#5385c4}.cls-13,.cls-2,.cls-20,.cls-21,.cls-4,.cls-8,.cls-9{stroke-width:4px}.cls-3{fill:#338fff}.cls-18,.cls-4{fill:#82b6e2}.cls-22,.cls-26,.cls-8,.cls-9{stroke-linecap:round}.cls-18,.cls-19,.cls-22,.cls-26{stroke-width:3px}.cls-13,.cls-18,.cls-19,.cls-22,.cls-8,.cls-9{stroke-linejoin:round}.cls-19,.cls-21,.cls-22,.cls-25,.cls-26,.cls-9{fill:none}.cls-10{fill:#5385c4}.cls-13{fill:#47c4c1}.cls-20{fill:#48e3e2}.cls-16{fill:#3db7b3}.cls-17{fill:#f3faff}.cls-25{stroke-width:4.9px}.cls-27{isolation:isolate}
    </style>
  </defs>
  <g id="Layer_1" data-name="Layer 1">
    <path d="M851.22 296.21c5 1.25 7.68.53 7.68.53 8 0 14.48-7.93 14.48-17.72s-6.48-17.72-14.48-17.72a12.3 12.3 0 0 0-4.68.66m-1.13 7.62a11.43 11.43 0 0 1 4.81-.73c4.59 0 8.31 4.55 8.31 10.17s-3.72 10.17-8.31 10.17a21.79 21.79 0 0 1-6.18 0" style="stroke-width:4.52px;stroke:#5385c4;fill:#fff"/>
    <path class="cls-2" d="m794.26 153-153-78.73a5.5 5.5 0 0 0-7.68 2.32l-58.12 117.5L738 288.34l58.43-128.14a5.49 5.49 0 0 0-2.17-7.2Z"/>
    <path class="cls-3" d="M778.45 156.51 646.39 89.92a4.74 4.74 0 0 0-6.63 2L594.38 185a4.17 4.17 0 0 0 1.65 5.44l133.05 77.17a4.18 4.18 0 0 0 5.85-1.78l45.4-103.09a4.75 4.75 0 0 0-1.88-6.23Z"/>
    <path class="cls-4" d="m232.81 218.92-.09 6.25c0 1.88 1.83 5.91 4.91 7.66l101.89 58.6a12.09 12.09 0 0 0 12.09 0l150.11-86.34c3.91-2.58 5.43-6.33 5.41-8.33v-7"/>
    <path class="cls-2" d="m235.6 223.42 103.92 60a12.09 12.09 0 0 0 12.09 0l152.61-88a5.92 5.92 0 0 0 0-10.24l-103.14-59.64a12.38 12.38 0 0 0-12.39 0l-153.09 88.2a5.59 5.59 0 0 0 0 9.68Z"/>
    <path class="cls-3" d="m266.32 207.52 128.3-74.08a1.53 1.53 0 0 1 1.52 0l94.47 54.74a1.52 1.52 0 0 1 0 2.63l-128.3 73.92a1.53 1.53 0 0 1-1.52 0l-94.47-54.58a1.52 1.52 0 0 1 0-2.63Z"/>
    <ellipse cx="298.47" cy="243.42" rx="7.38" ry="4.75" style="stroke-width:2px;stroke:#5385c4;fill:#fff"/>
    <path class="cls-4" d="m737.09 288.92.09 6.25c0 1.88-1.83 5.92-4.92 7.67l-101.88 58.59a12.06 12.06 0 0 1-12.09 0l-150.11-86.34c-3.92-2.59-5.44-6.33-5.42-8.34v-7"/>
    <path class="cls-2" d="m734.29 293.43-103.91 60a12.06 12.06 0 0 1-12.09 0l-152.61-88a5.92 5.92 0 0 1 0-10.24l103.12-59.63a12.38 12.38 0 0 1 12.4 0l153.09 88.2a5.59 5.59 0 0 1 0 9.67Z"/>
    <path class="cls-4" d="m248.5 276.63.05 7.13a10.35 10.35 0 0 1-5.17 8.33l-48.45 28a12.08 12.08 0 0 1-12.1 0L81.3 261.42c-2.33-1.41-5.08-4.33-5.08-8.16l-.09-7"/>
    <path class="cls-2" d="m78.92 251.09 103.91 60a12.08 12.08 0 0 0 12.1 0l50.62-29.37a5.91 5.91 0 0 0 0-10.23l-103.13-59.65a12.38 12.38 0 0 0-12.4 0l-51.1 29.57a5.59 5.59 0 0 0 0 9.68Z"/>
    <path d="M89.88 235.09h12.44a3.93 3.93 0 0 0 2-.54l19.45-11.34a3.15 3.15 0 0 0 1.55-2.85l-.25-5.27" style="fill:#5384c4;stroke-width:4px;stroke:#5385c4"/>
    <path style="stroke-width:3px;stroke-linecap:round;stroke:#5385c4;fill:#fff" d="m196.67 301.38 32.63-18.62"/>
    <path class="cls-8" d="m246.97 319.83 63.5 36.5M234.22 311.83l5 2.75"/>
    <path class="cls-9" d="m345.22 336.08-26.13-14.58-69.8 39.93 26.18 14.65"/>
    <ellipse class="cls-10" cx="320.38" cy="363.13" rx="7.49" ry="4.31"/>
    <ellipse class="cls-10" cx="354.88" cy="343.13" rx="7.49" ry="4.31"/>
    <ellipse class="cls-10" cx="285.55" cy="383.46" rx="7.49" ry="4.31"/>
    <path class="cls-10" d="m271.05 340.12 12.67-7.37a1.41 1.41 0 0 1 1.38 0l12.77 7.37a1.38 1.38 0 0 1 0 2.38l-12.67 7.37a1.41 1.41 0 0 1-1.38 0l-12.77-7.37a1.38 1.38 0 0 1 0-2.38Z"/>
    <path d="M226.24 161v1.84a3.22 3.22 0 0 1-.47 1.57c-.23.18-4.72 3.46-5.28 3.85a5 5 0 0 0-.91 1.13 34.65 34.65 0 0 1-1.27 5c.08.38.2.78.39.89.4.23 3.55 2.17 3.71 2.28a2.8 2.8 0 0 1-.34 1.55l-1 2s-.58 1.14-1 2a3.43 3.43 0 0 1-1.09 1.29c-.2 0-4-.61-4.5-.71a2.29 2.29 0 0 0-1 .39 38.73 38.73 0 0 1-3.34 4.22 4.35 4.35 0 0 0-.33 1.34c.05.62.37 5.64.39 5.9a3.75 3.75 0 0 1-1 1.38l-1.58 1.25-1.62 1.23a2 2 0 0 1-.28.19 1.25 1.25 0 0 1-.92.21c-.08-.22-1.46-4.4-1.62-4.93-.08-.25-.38-.42-.68-.54a19.76 19.76 0 0 1-1.94.89 17.35 17.35 0 0 1-1.9.61 5.11 5.11 0 0 0-.9 1.15c-.32.72-3 6.47-3.12 6.77a2.16 2.16 0 0 1-.45.33 1.38 1.38 0 0 1-.77.22l-1.4-.1-1.4-.09a.87.87 0 0 1-.76-.68c.09-.31 1.8-6.12 2-6.84a3 3 0 0 0 0-1.22 8.08 8.08 0 0 1-2.55-1.93 2.85 2.85 0 0 0-.85.29.94.94 0 0 0-.19.14l-5.17 4.47a.82.82 0 0 1-.85-.54c-.25-.6-.56-1.36-.58-1.39s-.32-.8-.57-1.41a2.33 2.33 0 0 1 0-1.43c.21-.25 4.22-5 4.73-5.56a4.9 4.9 0 0 0 .67-1.32 21.14 21.14 0 0 1 0-4.45c-.21-.26-.47-.51-.71-.5-.51 0-4.58.07-4.8.07a1.76 1.76 0 0 1-.08-1.36c.23-.88.51-2 .52-2s.31-1.17.53-2a3.83 3.83 0 0 1 .82-1.53c.24-.07 4.66-1.51 5.21-1.67l.17-.08a5.12 5.12 0 0 0 .86-.72 41.54 41.54 0 0 1 2.46-4.9 2.65 2.65 0 0 0 0-1.19c-.24-.45-2.09-4.16-2.18-4.35a3.57 3.57 0 0 1 .72-1.56l1.38-1.74 1.37-1.74a2.89 2.89 0 0 1 .82-.71 1.53 1.53 0 0 1 .4-.18c.15.13 2.92 2.66 3.26 3 .16.16.54.14.91.09a28.21 28.21 0 0 1 3.82-3 4.81 4.81 0 0 0 .65-1.32c.15-.71 1.39-6.44 1.46-6.74a3.16 3.16 0 0 1 .95-.91l.24-.12 1.59-.61 1.58-.62a.88.88 0 0 1 1 .15c0 .28-.18 5.6-.22 6.26a1.72 1.72 0 0 0 .36.94 9.55 9.55 0 0 1 3.41.23 3.84 3.84 0 0 0 1-.84c.46-.64 4.21-5.71 4.41-6a1.1 1.1 0 0 1 1.1 0l1.05.8 1 .79a1.4 1.4 0 0 1 .38 1.13c-.16.29-3.2 5.9-3.59 6.6a3.92 3.92 0 0 0-.36 1.34 12.12 12.12 0 0 1 1.39 3.4 1.36 1.36 0 0 0 .93 0c.56-.27 5.06-2.31 5.3-2.42a1.06 1.06 0 0 1 .5 1c.12.7.13 1.69.13 1.77Zm-14.38 10.26c.77-5.94-2.48-9.25-7.26-7.39a11 11 0 0 0-1.43.69c-4.21 2.44-7.92 8.09-8.6 13.43-.77 5.95 2.49 9.26 7.26 7.4a9.93 9.93 0 0 0 1.43-.7c4.22-2.43 7.92-8.08 8.6-13.43" style="stroke-width:3.87px;stroke-linejoin:round;stroke:#5385c4;fill:#fff"/>
    <path d="M229 161.48v1.9a3.62 3.62 0 0 1-.48 1.64l-5.46 4a4.67 4.67 0 0 0-1 1.17 34.35 34.35 0 0 1-1.32 5.14c.08.41.21.82.41.93.41.23 3.67 2.25 3.84 2.36a3 3 0 0 1-.35 1.61l-1.05 2.08-1 2.09a3.7 3.7 0 0 1-1.12 1.33c-.21 0-4.17-.64-4.66-.73a2.25 2.25 0 0 0-1.08.4 39.13 39.13 0 0 1-3.45 4.36 4.18 4.18 0 0 0-.34 1.39c.05.64.38 5.84.4 6.11a4 4 0 0 1-1.06 1.42l-1.63 1.3-1.63 1.29a1.68 1.68 0 0 1-.29.2 1.21 1.21 0 0 1-.95.21c-.08-.22-1.51-4.54-1.67-5.09-.08-.26-.4-.44-.7-.56a19.8 19.8 0 0 1-2 .91 15.41 15.41 0 0 1-2 .63 5.42 5.42 0 0 0-.93 1.2c-.33.74-3.08 6.69-3.23 7a2.14 2.14 0 0 1-.47.34 1.36 1.36 0 0 1-.79.23l-1.45-.1-1.45-.1a.91.91 0 0 1-.79-.7c.1-.32 1.87-6.33 2.1-7.08a3 3 0 0 0 0-1.26 8.48 8.48 0 0 1-2.63-2 2.61 2.61 0 0 0-.88.29.75.75 0 0 0-.2.15l-5.35 4.62a.85.85 0 0 1-.88-.55l-.6-1.45s-.33-.82-.59-1.45a2.41 2.41 0 0 1 0-1.48c.22-.26 4.37-5.16 4.89-5.76a5 5 0 0 0 .7-1.36 22.56 22.56 0 0 1-.06-4.6c-.21-.27-.48-.54-.73-.52-.53 0-4.74.07-5 .07a1.78 1.78 0 0 1-.09-1.41c.24-.91.53-2.06.54-2.12s.32-1.21.55-2.12a3.85 3.85 0 0 1 .85-1.57l5.39-1.74a.67.67 0 0 0 .18-.08 5.42 5.42 0 0 0 .89-.74 42.1 42.1 0 0 1 2.54-5.07 2.67 2.67 0 0 0 0-1.23c-.25-.47-2.16-4.3-2.26-4.51a3.91 3.91 0 0 1 .75-1.61l1.42-1.8c0-.05.82-1 1.43-1.8a3.11 3.11 0 0 1 .84-.74 1.63 1.63 0 0 1 .42-.18l3.37 3.09c.16.17.56.15.94.09a30.2 30.2 0 0 1 4-3.15 5 5 0 0 0 .67-1.37c.15-.74 1.44-6.66 1.51-7a3.22 3.22 0 0 1 1-.94 1.15 1.15 0 0 1 .25-.12l1.64-.64 1.64-.64a.91.91 0 0 1 1.08.16c0 .29-.19 5.79-.23 6.47a1.72 1.72 0 0 0 .37 1 10 10 0 0 1 3.53.24 3.59 3.59 0 0 0 1.06-.87c.48-.66 4.36-5.91 4.57-6.18a1.12 1.12 0 0 1 1.14 0l1.08.82s.62.47 1.09.82a1.45 1.45 0 0 1 .4 1.17c-.17.3-3.32 6.11-3.72 6.83a4.22 4.22 0 0 0-.37 1.39A12.48 12.48 0 0 1 222 161a1.29 1.29 0 0 0 1 0l5.49-2.5s.5.23.52 1.05-.01 1.88-.01 1.93Zm-14.85 10.62c.8-6.14-2.57-9.57-7.51-7.65a11.2 11.2 0 0 0-1.48.72c-4.36 2.52-8.2 8.37-8.91 13.9-.79 6.15 2.58 9.57 7.52 7.65a9.59 9.59 0 0 0 1.48-.72c4.36-2.52 8.19-8.37 8.9-13.9" style="stroke-linejoin:round;stroke-width:3px;stroke:#5385c4;fill:#fff"/>
    <path class="cls-13" d="M738.93 331.26h-18.1v10.43l46.53 26.91v-53.73l-28.43 16.39zM795.82 331.26l-28.42-16.41-.04.02v53.73l46.53-26.91v-10.43h-18.07z"/>
    <path style="fill:#5385c4;stroke-linejoin:round;stroke-width:4px;stroke:#5385c4" d="m813.89 331.26-46.49-26.84-9.58 5.52 46.51 26.85 9.56-5.53z"/>
    <path style="fill:#48e3e2;stroke-linejoin:round;stroke-width:4px;stroke:#5385c4" d="m757.82 309.94-36.99 21.32 46.53 26.91 36.97-21.38-46.51-26.85z"/>
    <path class="cls-16" d="m789.4 337.54-33.37-19.26-3.1 1.78 33.35 19.29 3.12-1.81zM782.03 341.75l-33.37-19.26-3.09 1.78 33.35 19.29 3.11-1.81z"/>
    <path class="cls-10" d="m137 344.59 3.87 3.89a3.54 3.54 0 0 1 1.08-2.75Z"/>
    <path class="cls-17" d="M141.9 345.73a3.54 3.54 0 0 0-1.08 2.75l6.69 6.75c0-6.84 3.05-7.49 3.05-7.49Z"/>
    <path class="cls-18" d="m244.77 410.66-95.11-55h.05c-1.55-.89-2.69-1.64-2.69-3.66s1.2-3.66 2.69-3.66h.13l94.93 54.82a3.63 3.63 0 0 1 2.39 3.74c0 2.06-1 3.68-2.32 3.68Z"/>
    <path class="cls-19" d="M244.82 403.4a3.61 3.61 0 0 0-2.68 3.76 3 3 0 0 0 1.86 3M238.88 399.86a3.61 3.61 0 0 0-2.68 3.76 3 3 0 0 0 1.86 3"/>
    <path class="cls-10" d="m121.8 353.39 3.86 3.9a3.56 3.56 0 0 1 1.08-2.75Z"/>
    <path class="cls-17" d="M126.74 354.54a3.56 3.56 0 0 0-1.08 2.75l6.69 6.74c0-6.84 3.06-7.49 3.06-7.49Z"/>
    <path class="cls-18" d="m229.62 419.46-95.12-55 .05.06c-1.54-.9-2.69-1.64-2.69-3.66s1.21-3.66 2.69-3.66h.13l94.94 54.8a3.61 3.61 0 0 1 2.4 3.73c0 2.07-1 3.69-2.32 3.69Z"/>
    <path class="cls-19" d="M229.66 412.2A3.61 3.61 0 0 0 227 416a3 3 0 0 0 1.86 3M223.72 408.66a3.61 3.61 0 0 0-2.68 3.77 3 3 0 0 0 1.86 3"/>
    <path class="cls-10" d="M716.56 293.39 564.2 205.8c-.59-.34-.66-.87-.15-1.16l5.09-3a2.25 2.25 0 0 1 2 .08l152.37 87.59c.59.34.65.87.14 1.16l-5.09 3a2.25 2.25 0 0 1-2-.08ZM559.62 217.16l-7.6-4.37c-.66-.38-.73-1-.16-1.29l8.83-5.14a2.51 2.51 0 0 1 2.23.08l7.6 4.37c.66.38.73 1 .16 1.29l-8.83 5.15a2.48 2.48 0 0 1-2.23-.09ZM570.44 223.38l-7.61-4.38c-.65-.38-.73-1-.16-1.29l8.83-5.14a2.48 2.48 0 0 1 2.23.08l7.6 4.37c.66.38.73 1 .17 1.29l-8.84 5.15a2.46 2.46 0 0 1-2.22-.08ZM581.15 229.54l-7.6-4.37c-.66-.38-.73-1-.17-1.29l8.84-5.14a2.43 2.43 0 0 1 2.22.08l7.61 4.37c.65.38.73 1 .16 1.29l-8.83 5.14a2.48 2.48 0 0 1-2.23-.08ZM591.76 235.64l-7.6-4.37c-.66-.38-.73-1-.17-1.29l8.84-5.15a2.46 2.46 0 0 1 2.22.09l7.61 4.37c.65.38.73 1 .16 1.29l-8.82 5.14a2.48 2.48 0 0 1-2.24-.08ZM602.57 241.86l-7.6-4.37c-.65-.38-.73-1-.16-1.29l8.83-5.15a2.48 2.48 0 0 1 2.23.09l7.6 4.37c.66.38.73 1 .16 1.29l-8.83 5.14a2.51 2.51 0 0 1-2.23-.08ZM613.29 248l-7.6-4.37c-.66-.37-.73-.95-.17-1.28l8.84-5.15a2.46 2.46 0 0 1 2.22.09l7.6 4.37c.66.38.73 1 .17 1.29l-8.84 5.14a2.46 2.46 0 0 1-2.22-.09ZM624.21 254.29l-7.61-4.37c-.65-.38-.73-1-.16-1.29l8.83-5.14a2.51 2.51 0 0 1 2.23.08l7.6 4.38c.66.37.73 1 .17 1.28l-8.84 5.15a2.46 2.46 0 0 1-2.22-.09ZM634.92 260.45l-7.6-4.37c-.66-.38-.73-1-.17-1.29l8.84-5.14a2.49 2.49 0 0 1 2.22.08l7.61 4.37c.65.38.73 1 .16 1.29l-8.83 5.15a2.48 2.48 0 0 1-2.23-.09ZM645.53 266.55l-7.6-4.37c-.66-.38-.73-1-.17-1.29l8.84-5.14a2.49 2.49 0 0 1 2.22.08l7.61 4.37c.65.38.73 1 .16 1.29l-8.83 5.15a2.48 2.48 0 0 1-2.23-.09ZM656.14 272.65l-7.6-4.37c-.66-.38-.73-1-.17-1.29l8.84-5.14a2.46 2.46 0 0 1 2.22.08l7.57 4.37c.65.38.73 1 .16 1.29l-8.83 5.15a2.48 2.48 0 0 1-2.19-.09ZM667 278.87l-7.6-4.37c-.66-.38-.73-1-.16-1.29l8.83-5.14a2.45 2.45 0 0 1 2.23.08l7.6 4.37c.66.38.73 1 .16 1.29l-8.88 5.19a2.48 2.48 0 0 1-2.18-.13ZM677.77 285.09l-7.6-4.37c-.66-.38-.73-1-.16-1.29l8.83-5.15a2.46 2.46 0 0 1 2.22.09l7.61 4.37c.65.38.73 1 .16 1.29l-8.83 5.14a2.51 2.51 0 0 1-2.23-.08ZM688.48 291.25l-7.6-4.38c-.66-.37-.73-.95-.16-1.28l8.83-5.15a2.48 2.48 0 0 1 2.23.09l7.6 4.37c.66.38.73 1 .16 1.29l-8.83 5.14a2.51 2.51 0 0 1-2.23-.08ZM563.59 233.44l-7.6-4.37c-.65-.37-.73-.95-.16-1.28l8.83-5.15a2.48 2.48 0 0 1 2.23.09l7.6 4.37c.66.37.73 1 .16 1.29l-8.83 5.14a2.48 2.48 0 0 1-2.23-.09ZM574.31 239.6l-7.6-4.37c-.66-.38-.73-.95-.17-1.29l8.84-5.14a2.46 2.46 0 0 1 2.22.09l7.61 4.37c.65.37.73 1 .16 1.28l-8.84 5.15a2.46 2.46 0 0 1-2.22-.09ZM584.92 245.7l-7.6-4.37c-.66-.38-.73-1-.17-1.29l8.85-5.14a2.46 2.46 0 0 1 2.22.09l7.6 4.37c.66.37.73.95.17 1.28l-8.84 5.15a2.46 2.46 0 0 1-2.23-.09ZM595.73 251.92l-7.6-4.37c-.66-.38-.73-1-.16-1.29l8.83-5.14a2.51 2.51 0 0 1 2.23.08l7.6 4.37c.66.38.73 1 .16 1.29L598 252a2.48 2.48 0 0 1-2.27-.08ZM606.45 258.08l-7.61-4.37c-.65-.38-.73-1-.16-1.29l8.83-5.14a2.48 2.48 0 0 1 2.23.08l7.6 4.37c.66.38.73 1 .17 1.29l-8.84 5.15a2.46 2.46 0 0 1-2.22-.09ZM617.36 264.36l-7.6-4.37c-.65-.38-.73-1-.16-1.29l8.83-5.15a2.48 2.48 0 0 1 2.23.09l7.6 4.37c.66.38.73 1 .16 1.29l-8.83 5.14a2.51 2.51 0 0 1-2.23-.08ZM628.08 270.52l-7.61-4.37c-.65-.38-.73-1-.16-1.29l8.84-5.15a2.46 2.46 0 0 1 2.22.09l7.6 4.37c.66.38.73 1 .17 1.29l-8.84 5.14a2.49 2.49 0 0 1-2.22-.08ZM638.69 276.62l-7.61-4.38c-.65-.37-.73-.95-.16-1.28l8.83-5.15a2.48 2.48 0 0 1 2.23.09l7.6 4.37c.66.38.73 1 .17 1.29l-8.84 5.14a2.49 2.49 0 0 1-2.22-.08ZM649.3 282.72l-7.61-4.38c-.65-.37-.73-.95-.16-1.28l8.83-5.15a2.48 2.48 0 0 1 2.23.09l7.6 4.37c.66.38.73 1 .17 1.29l-8.84 5.14a2.49 2.49 0 0 1-2.22-.08ZM660.11 288.93l-7.6-4.37c-.66-.38-.73-.95-.16-1.29l8.83-5.14a2.48 2.48 0 0 1 2.23.09l7.6 4.37c.66.37.73 1 .16 1.28l-8.83 5.13a2.48 2.48 0 0 1-2.23-.07ZM670.93 295.15l-7.6-4.37c-.66-.38-.73-1-.17-1.29l8.84-5.14a2.49 2.49 0 0 1 2.22.08l7.61 4.37c.65.38.73 1 .16 1.29l-8.83 5.15a2.48 2.48 0 0 1-2.23-.09ZM554.08 242l-7.61-4.37c-.65-.38-.73-1-.16-1.29l8.83-5.14a2.48 2.48 0 0 1 2.23.08l7.6 4.37c.66.38.73 1 .16 1.29l-8.83 5.14a2.43 2.43 0 0 1-2.22-.08ZM564.79 248.13l-7.6-4.37c-.66-.38-.73-1-.17-1.29l8.84-5.14a2.43 2.43 0 0 1 2.22.08l7.61 4.37c.65.38.73 1 .16 1.29l-8.85 5.14a2.48 2.48 0 0 1-2.21-.08ZM575.4 254.23l-7.6-4.37c-.66-.38-.73-1-.17-1.29l8.84-5.15a2.46 2.46 0 0 1 2.22.09l7.6 4.37c.66.38.74 1 .17 1.29l-8.84 5.14a2.46 2.46 0 0 1-2.22-.08ZM586.21 260.45l-7.6-4.37c-.66-.38-.73-1-.16-1.29l8.83-5.15a2.48 2.48 0 0 1 2.23.09l7.6 4.37c.66.38.73 1 .16 1.29l-8.83 5.14a2.51 2.51 0 0 1-2.23-.08ZM596.93 266.6l-7.61-4.37c-.65-.37-.73-1-.16-1.28l8.84-5.15a2.48 2.48 0 0 1 2.23.09l7.6 4.37c.66.38.73 1 .17 1.29l-8.84 5.14a2.46 2.46 0 0 1-2.23-.09ZM607.84 272.88l-7.6-4.37c-.65-.38-.73-1-.16-1.29l8.83-5.14a2.51 2.51 0 0 1 2.23.08l7.6 4.37c.66.38.73 1 .16 1.29l-8.83 5.18a2.48 2.48 0 0 1-2.23-.12ZM618.56 279l-7.6-4.37c-.66-.38-.73-1-.17-1.29l8.84-5.14a2.49 2.49 0 0 1 2.22.08l7.6 4.37c.66.38.73 1 .17 1.29l-8.84 5.15a2.46 2.46 0 0 1-2.22-.09ZM629.17 285.14l-7.61-4.37c-.65-.38-.73-1-.16-1.29l8.84-5.14a2.49 2.49 0 0 1 2.22.08l7.6 4.37c.66.38.73 1 .17 1.29l-8.84 5.15a2.46 2.46 0 0 1-2.22-.09ZM639.78 291.24l-7.61-4.37c-.65-.38-.73-1-.16-1.29l8.83-5.14a2.48 2.48 0 0 1 2.23.08l7.6 4.37c.66.38.73 1 .17 1.29l-8.84 5.15a2.46 2.46 0 0 1-2.22-.09ZM650.59 297.46l-7.6-4.37c-.66-.38-.73-1-.16-1.29l8.83-5.14a2.45 2.45 0 0 1 2.23.08l7.6 4.37c.66.38.73 1 .16 1.29l-8.83 5.14a2.48 2.48 0 0 1-2.23-.08ZM661.41 303.68l-7.6-4.37c-.66-.38-.73-1-.17-1.29l8.84-5.15a2.46 2.46 0 0 1 2.22.09l7.61 4.37c.65.38.73 1 .16 1.29l-8.83 5.14a2.51 2.51 0 0 1-2.23-.08ZM547.42 252.28l-7.6-4.37c-.66-.38-.73-1-.16-1.29l8.83-5.14a2.51 2.51 0 0 1 2.23.08l7.6 4.37c.66.38.73 1 .16 1.29l-8.83 5.15a2.48 2.48 0 0 1-2.23-.09ZM558 258.38l-7.6-4.37c-.66-.38-.73-1-.16-1.29l8.83-5.14a2.51 2.51 0 0 1 2.23.08l7.6 4.37c.66.38.73 1 .16 1.29l-8.83 5.15a2.48 2.48 0 0 1-2.23-.09ZM568.85 264.6l-7.6-4.37c-.66-.38-.73-1-.17-1.29l8.84-5.14a2.46 2.46 0 0 1 2.22.08l7.61 4.37c.65.38.73 1 .16 1.29l-8.83 5.14a2.45 2.45 0 0 1-2.23-.08ZM579.56 270.76l-7.6-4.37c-.66-.38-.73-1-.16-1.29l8.83-5.15a2.48 2.48 0 0 1 2.23.09l7.6 4.37c.66.38.73 1 .16 1.29l-8.83 5.14a2.48 2.48 0 0 1-2.23-.08ZM590.48 277l-7.6-4.38c-.66-.37-.73-1-.16-1.28l8.83-5.15a2.46 2.46 0 0 1 2.22.09l7.61 4.37c.65.38.73 1 .16 1.29l-8.83 5.14a2.51 2.51 0 0 1-2.23-.08ZM601.19 283.19l-7.6-4.37c-.66-.37-.73-.95-.16-1.28l8.83-5.15a2.48 2.48 0 0 1 2.23.09l7.6 4.37c.66.37.73.95.16 1.29l-8.83 5.14a2.48 2.48 0 0 1-2.23-.09ZM611.8 289.29l-7.6-4.37c-.66-.37-.73-.95-.16-1.28l8.83-5.15a2.48 2.48 0 0 1 2.23.09l7.6 4.37c.66.37.73.95.16 1.29l-8.86 5.14a2.48 2.48 0 0 1-2.2-.09ZM622.41 295.39l-7.6-4.37c-.66-.37-.73-.95-.16-1.29l8.83-5.14a2.48 2.48 0 0 1 2.23.09l7.6 4.37c.66.37.73.95.16 1.28l-8.83 5.15a2.48 2.48 0 0 1-2.23-.09ZM633.23 301.61l-7.6-4.37c-.66-.38-.73-1-.17-1.29l8.84-5.14a2.49 2.49 0 0 1 2.22.08l7.6 4.37c.66.38.73 1 .17 1.29l-8.84 5.15a2.46 2.46 0 0 1-2.22-.09ZM644 307.83l-7.6-4.37c-.66-.38-.73-1-.16-1.29l8.83-5.14a2.48 2.48 0 0 1 2.23.08l7.6 4.37c.66.38.73 1 .16 1.29l-8.83 5.15a2.48 2.48 0 0 1-2.23-.09ZM681.64 301.31l-7.6-4.37c-.66-.38-.73-1-.16-1.29l8.83-5.14a2.48 2.48 0 0 1 2.23.08l7.6 4.37c.66.38.73 1 .16 1.29l-8.83 5.15a2.48 2.48 0 0 1-2.23-.09ZM692.46 307.53l-7.61-4.37c-.65-.38-.73-1-.16-1.29l8.83-5.14a2.45 2.45 0 0 1 2.23.08l7.6 4.37c.66.38.73 1 .17 1.29l-8.84 5.14a2.46 2.46 0 0 1-2.22-.08ZM704.35 300.37 691.59 293c-.65-.37-.73-.95-.16-1.28l8.83-5.15a2.48 2.48 0 0 1 2.23.09l12.75 7.34c.66.38.73 1 .17 1.29l-8.84 5.14a2.49 2.49 0 0 1-2.22-.06ZM552.66 227.3l-12.75-7.3c-.66-.37-.73-1-.17-1.28l8.84-5.15a2.46 2.46 0 0 1 2.22.09l12.76 7.34c.65.38.73 1 .16 1.29l-8.83 5.14a2.51 2.51 0 0 1-2.23-.13ZM543.48 235.74l-15.43-8.87c-.66-.38-.73-1-.16-1.29l8.83-5.14a2.48 2.48 0 0 1 2.23.08l15.43 8.87c.66.38.73 1 .16 1.29l-8.83 5.15a2.48 2.48 0 0 1-2.23-.09ZM536.5 246l-20.78-11.95c-.66-.37-.73-1-.17-1.28l8.84-5.15a2.46 2.46 0 0 1 2.22.09l20.79 11.95c.66.37.73 1 .16 1.29l-8.83 5.14a2.48 2.48 0 0 1-2.23-.09ZM667.94 321.57l-20.79-11.95c-.65-.38-.73-1-.16-1.29l8.83-5.14a2.45 2.45 0 0 1 2.23.08l20.79 12c.66.38.73 1 .16 1.29l-8.83 5.14a2.48 2.48 0 0 1-2.23-.13ZM680.38 314.44 665 305.57c-.66-.38-.73-.95-.16-1.29l8.83-5.14a2.46 2.46 0 0 1 2.22.09l15.44 8.87c.65.37.73.95.16 1.29l-8.83 5.14a2.48 2.48 0 0 1-2.28-.09ZM511.1 245.54l-7.6-4.37c-.65-.38-.73-1-.16-1.29l8.83-5.14a2.45 2.45 0 0 1 2.23.08l7.6 4.37c.66.38.73 1 .16 1.29l-8.83 5.14a2.48 2.48 0 0 1-2.23-.08ZM521.71 251.64l-7.6-4.37c-.66-.38-.73-1-.16-1.29l8.83-5.15a2.48 2.48 0 0 1 2.23.09l7.6 4.37c.66.38.73 1 .16 1.29l-8.83 5.14a2.48 2.48 0 0 1-2.23-.08ZM532.53 257.86l-7.6-4.37c-.66-.38-.73-1-.16-1.29l8.83-5.15a2.48 2.48 0 0 1 2.23.09l7.6 4.37c.65.38.73 1 .16 1.29l-8.83 5.14a2.51 2.51 0 0 1-2.23-.08ZM623.59 310.21l-7.6-4.37c-.66-.38-.73-1-.17-1.29l8.84-5.15a2.46 2.46 0 0 1 2.22.09l7.61 4.37c.65.38.73 1 .16 1.29l-8.84 5.14a2.49 2.49 0 0 1-2.22-.08ZM634.4 316.42l-7.6-4.37c-.66-.37-.73-.95-.16-1.28l8.83-5.15a2.48 2.48 0 0 1 2.23.09l7.6 4.37c.66.38.73.95.16 1.29l-8.83 5.14a2.48 2.48 0 0 1-2.23-.09ZM645.12 322.58l-7.61-4.37c-.65-.38-.73-.95-.16-1.29l8.83-5.14a2.48 2.48 0 0 1 2.23.09l7.6 4.37c.66.37.73.95.17 1.28l-8.84 5.15a2.46 2.46 0 0 1-2.22-.09ZM545.94 265.43l-10.08-5.8c-.65-.37-.73-.95-.16-1.28l8.83-5.15a2.48 2.48 0 0 1 2.23.09l10.08 5.79c.65.38.73 1 .16 1.29l-8.84 5.14a2.49 2.49 0 0 1-2.22-.08ZM612.89 303.92l-10.07-5.79c-.66-.38-.73-1-.16-1.29l8.83-5.15a2.46 2.46 0 0 1 2.22.09l10.08 5.79c.66.38.73 1 .16 1.29l-8.83 5.14a2.48 2.48 0 0 1-2.23-.08ZM599.5 296.22l-50.14-28.83c-.66-.38-.73-1-.17-1.29L558 261a2.49 2.49 0 0 1 2.22.08l50.15 28.83c.66.38.73 1 .16 1.29l-8.83 5.15a2.48 2.48 0 0 1-2.2-.13ZM656 328.67l-7.6-4.37c-.66-.38-.73-1-.17-1.29l8.84-5.14a2.49 2.49 0 0 1 2.22.08l7.61 4.38c.65.37.73.95.16 1.28l-8.83 5.15a2.48 2.48 0 0 1-2.23-.09Z"/>
    <ellipse class="cls-2" cx="524.22" cy="111.71" rx="24.38" ry="14.03"/>
    <path class="cls-20" d="M491.72 72.08a116.07 116.07 0 0 1 21.75 32l3.75 7.13 8.87-19.63C519.26 76 507.58 70 491.72 72.08Z"/>
    <path class="cls-21" d="M548.38 112.92 545 147.25l-.22 2.46c0 6.53-9.19 11.81-20.53 11.81s-20.53-5.28-20.53-11.81l-3.67-37"/>
    <ellipse class="cls-2" cx="829.72" cy="252.71" rx="24.38" ry="14.03"/>
    <path class="cls-21" d="M807.68 257.69c3.92-4.74 12.31-8 22-8 10 0 18.6 3.46 22.36 8.42"/>
    <path class="cls-21" d="m854.34 252.46-4 51.62-.09-.37c0 6.53-9.19 11.81-20.53 11.81s-20.53-5.28-20.53-11.81l-4-51.5"/>
    <path class="cls-20" d="M572.88 94.08s-18.83-13-34.16 11.34c-.36.56.83 15.33.83 15.33s17.83-21 33.33-26.67Z"/>
    <path class="cls-20" d="M517.22 112.92c8.83-40 43.5-43 43.5-43s-22.5 17-22.5 42.16c0 0 .66 6.5 1.83 9.5 0 0-6 5.34-22.5 3.34"/>
    <path class="cls-20" d="M475.88 92.92s16.34 4.66 27.67 22.33c0 0 1 4 2.33 5s8.34 5 11.67 4.67-2-43.67-41.67-32Z"/>
    <path class="cls-22" d="m813.55 217.59 6 7.18a10.86 10.86 0 0 1 .43 13.3h0a10.86 10.86 0 0 0 .13 12.93l4.48 5.92M824.55 217.59l6 7.18a10.86 10.86 0 0 1 .43 13.3h0a10.86 10.86 0 0 0 .13 12.93l4.48 5.92"/>
    <path d="m1216.39 322.5.07 8.73a12.72 12.72 0 0 1-6.34 10.22l-59.4 34.32a14.78 14.78 0 0 1-14.82 0l-124.47-71.92c-2.86-1.74-6.23-5.32-6.23-10l-.11-8.59" style="stroke-width:4.9px;fill:#82b6e2;stroke:#5385c4"/>
    <path d="m1008.51 291.19 127.39 73.56a14.81 14.81 0 0 0 14.82 0l62.06-36a7.25 7.25 0 0 0 0-12.55l-126.42-73.1a15.18 15.18 0 0 0-15.2 0l-62.64 36.25a6.85 6.85 0 0 0-.01 11.84Z" style="stroke-width:4.9px;stroke:#5385c4;fill:#fff"/>
    <path class="cls-25" d="m1019.97 297.58 79.62-46.54"/>
    <path class="cls-26" d="m1029.72 275.83 42.5-24.75"/>
    <path class="cls-25" d="m1129.72 361.08 78.66-46.3"/>
    <ellipse class="cls-10" cx="1022.69" cy="283.54" rx="4.83" ry="2.77"/>
    <path class="cls-4" d="M904.68 243.13v7.12a10.36 10.36 0 0 0 5.17 8.34l48.45 28a12.06 12.06 0 0 0 12.09 0l101.54-58.68c2.33-1.42 5.08-4.33 5.08-8.17l.09-7"/>
    <path class="cls-2" d="m1074.26 217.59-103.92 60a12 12 0 0 1-12.09 0l-50.62-29.37a5.91 5.91 0 0 1 0-10.23l103.12-59.64a12.38 12.38 0 0 1 12.4 0l51.1 29.57a5.59 5.59 0 0 1 .01 9.67Z"/>
    <path class="cls-21" d="m999.96 184.83 64.76 38M974.47 274.58l-63.26-37.75"/>
    <ellipse class="cls-10" cx="1016.93" cy="184.99" rx="3.54" ry="2.03"/>
    <path class="cls-26" d="m1060.72 206.83-33.25-19.25"/>
    <path class="cls-9" d="M412 293.58 630.11 419.3a10.18 10.18 0 0 0 10.21 0l68.78-39.76a10.22 10.22 0 0 1 10.23 0l41.5 24.1a10.22 10.22 0 0 0 10.14.07l162.25-91.47M399.22 285.92l5.25 2.91M503.55 346.25l21-12.17M531.88 329.75l5.34-3.17M861.55 325.25l23.67 13.33M851.22 319.25l4.16 2.5M915.88 322.58l70.36 39.62a7.43 7.43 0 0 0 7.28 0c12-6.78 36.7-20.62 36.7-20.62M1037.55 337.42l5-2.84"/>
    <path class="cls-2" d="M937.09 148.88c-4.83 2.79-9.17 7.69-12.19 13.23a12.92 12.92 0 0 0-7.27 2c-8.18 4.72-14.79 16.16-14.76 25.56s6.68 13.18 14.85 8.46l38.73-22.36c6-3.46 10.85-11.86 10.83-18.75s-4.9-9.67-10.9-6.21a17.51 17.51 0 0 0-3.37 2.57c-2.01-6.74-8.39-8.85-15.92-4.5ZM980.94 97a23.82 23.82 0 0 0-8.44 9.16 9 9 0 0 0-5 1.39c-5.66 3.27-10.24 11.19-10.22 17.69s4.62 9.13 10.28 5.86l26.81-15.48a16.47 16.47 0 0 0 7.49-13c0-4.77-3.39-6.7-7.54-4.3a12.05 12.05 0 0 0-2.33 1.77c-1.44-4.68-5.84-6.09-11.05-3.09ZM405.06 36.54c4.83 2.79 9.17 7.69 12.18 13.24a12.91 12.91 0 0 1 7.28 2c8.18 4.72 14.79 16.22 14.76 25.57s-6.68 13.18-14.85 8.46l-38.74-22.36c-6-3.46-10.84-11.86-10.82-18.75s4.9-9.68 10.89-6.21a18.24 18.24 0 0 1 3.38 2.56c2.03-6.74 8.39-8.85 15.92-4.51Z"/>
    <g class="cls-27">
      <path class="cls-4" d="M1131.71 224.66v7.28c0 3.22 2.13 6.44 6.36 8.9 8.51 4.95 22.36 4.95 30.94 0 4.31-2.49 6.47-5.75 6.46-9v-7.28c0 3.26-2.15 6.53-6.46 9-8.58 4.95-22.43 4.95-30.94 0-4.23-2.46-6.35-5.68-6.36-8.9Z"/>
      <path class="cls-2" d="M1138.17 215.63c-8.58 5-8.62 13-.1 17.93s22.36 4.94 30.94 0 8.61-13 .1-17.92-22.37-4.96-30.94-.01Z"/>
    </g>
    <g class="cls-27">
      <path class="cls-4" d="M1131.71 208.66v7.28c0 3.22 2.13 6.44 6.36 8.9 8.51 4.94 22.36 4.94 30.94 0 4.31-2.49 6.47-5.76 6.46-9v-7.28c0 3.26-2.15 6.53-6.46 9-8.58 4.95-22.43 4.95-30.94 0-4.23-2.46-6.35-5.68-6.36-8.9Z"/>
      <path class="cls-2" d="M1138.17 199.63c-8.58 5-8.62 13-.1 17.92s22.36 4.95 30.94 0 8.61-13 .1-17.92-22.37-4.95-30.94 0Z"/>
    </g>
    <g class="cls-27">
      <path class="cls-4" d="M1131.71 192.66v7.28c0 3.22 2.13 6.44 6.36 8.89 8.51 4.95 22.36 4.95 30.94 0 4.31-2.49 6.47-5.76 6.46-9v-7.28c0 3.26-2.15 6.53-6.46 9-8.58 4.95-22.43 4.95-30.94 0-4.23-2.46-6.35-5.67-6.36-8.89Z"/>
      <path class="cls-2" d="M1138.17 183.63c-8.58 5-8.62 13-.1 17.92s22.36 4.95 30.94 0 8.61-13 .1-17.92-22.37-4.95-30.94 0Z"/>
    </g>
    <g class="cls-27">
      <path class="cls-4" d="M1131.71 176.65v7.29c0 3.22 2.13 6.44 6.36 8.89 8.51 4.95 22.36 4.95 30.94 0 4.31-2.49 6.47-5.76 6.46-9v-7.28c0 3.26-2.15 6.53-6.46 9-8.58 4.95-22.43 4.95-30.94 0-4.23-2.46-6.35-5.67-6.36-8.9Z"/>
      <path class="cls-2" d="M1138.17 167.63c-8.58 5-8.62 13-.1 17.92s22.36 4.95 30.94 0 8.61-13 .1-17.92-22.37-4.95-30.94 0Z"/>
    </g>
    <path style="fill:#48e3e2" d="m914.34 236.33 85.38-49.25 61.25 35.88-86 49.62-60.63-36.25z"/>
    <path class="cls-3" d="m1024.55 297.58 75.67-43.66 104 60.33-74.67 43.67-105-60.34z"/>
    <path d="m706.35 132-3.66-2a.61.61 0 0 0-.82.26l-.12.23a2.66 2.66 0 0 1-3.58 1.11l-16.48-8.6a2.66 2.66 0 0 1-1.11-3.58l.12-.23a.61.61 0 0 0-.25-.82l-3.66-1.92a4.3 4.3 0 0 0-5.79 1.8l-38.64 73.48a4.3 4.3 0 0 0 1.8 5.79L663.72 213a4.29 4.29 0 0 0 5.79-1.8l38.64-73.48a4.29 4.29 0 0 0-1.8-5.72Z" style="stroke-width:1.65px;stroke-dasharray:4 4;stroke:#fff;stroke-miterlimit:10;fill:none;stroke-linecap:round"/>
    <rect x="692.43" y="156.42" width="38.38" height="66.49" rx="6.86" ry="6.86" transform="rotate(27.07 711.506 189.605)" style="stroke-dasharray:4;stroke:#fff;stroke-miterlimit:10;fill:none;stroke-linecap:round;stroke-width:2px"/>
  </g>
</svg>
